<svg version="1.1" id="Layer_1" x="0px" y="0px" viewBox="-11 24 530 457" style="enable-background:new 0 0 511.984 511.984;" xmlns="http://www.w3.org/2000/svg" xmlns:bx="https://boxy-svg.com">
  <defs>
    <filter id="inner-shadow-filter-0" x="-500%" y="-500%" width="1000%" height="1000%" bx:preset="inner-shadow 1 0 0 22 0.36 rgba(0,0,0,0.7)">
      <feOffset dx="0" dy="0"></feOffset>
      <feGaussianBlur stdDeviation="22"></feGaussianBlur>
      <feComposite operator="out" in="SourceGraphic"></feComposite>
      <feComponentTransfer result="choke">
        <feFuncA type="linear" slope="0.72"></feFuncA>
      </feComponentTransfer>
      <feFlood flood-color="rgba(0,0,0,0.7)" result="color"></feFlood>
      <feComposite operator="in" in="color" in2="choke" result="shadow"></feComposite>
      <feComposite operator="over" in="shadow" in2="SourceGraphic"></feComposite>
    </filter>
    <filter id="inner-shadow-filter-1" x="-500%" y="-500%" width="1000%" height="1000%" bx:preset="inner-shadow 1 0 0 0 0 rgba(0,0,0,0.7)">
      <feOffset dx="0" dy="0"></feOffset>
      <feGaussianBlur stdDeviation="0"></feGaussianBlur>
      <feComposite operator="out" in="SourceGraphic"></feComposite>
      <feComponentTransfer result="choke">
        <feFuncA type="linear" slope="0"></feFuncA>
      </feComponentTransfer>
      <feFlood flood-color="rgba(0,0,0,0.7)" result="color"></feFlood>
      <feComposite operator="in" in="color" in2="choke" result="shadow"></feComposite>
      <feComposite operator="over" in="shadow" in2="SourceGraphic"></feComposite>
    </filter>
  </defs>
  <g transform="matrix(0.939693, -0.34202, 0.34202, 0.939693, -72.116402, 102.992661)">
    <path style="fill: #FFD2A8;" d="M 255.992 74.67 C 114.621 74.67 0 137.856 0 202.666 L 0 309.319 C 0 374.13 114.622 437.315 255.992 437.315 C 397.379 437.315 511.984 374.129 511.984 309.319 L 511.984 202.666 C 511.984 137.856 397.379 74.67 255.992 74.67 Z M 256.086 298.663 C 185.588 298.663 127.996 305.585 127.996 276.319 C 127.996 247.055 185.15 223.321 255.664 223.321 C 326.162 223.321 383.316 247.055 383.316 276.319 C 383.316 305.585 326.584 298.663 256.086 298.663 Z"></path>
  </g>
  <path style="fill: rgb(215, 112, 173); filter: url(#inner-shadow-filter-1);" d="M 155.453 236.915 C 176.796 230.259 203.311 226.306 232.06 226.306 C 260.981 226.306 287.667 230.306 309.073 237.04 C 340.087 227.368 360.134 211.978 360.134 194.65 C 360.134 165.37 302.98 141.652 232.483 141.652 C 161.985 141.652 104.831 165.37 104.831 194.65 C 104.829 211.9 124.704 227.227 155.453 236.915 Z" transform="matrix(0.939692, -0.342021, 0.342021, 0.939692, -50.73983, 90.93294)"></path>
  <path style="fill: rgb(255, 210, 168); filter: url(#inner-shadow-filter-0);" d="M 130.494 250.703 C 152.619 236.719 193.742 227.304 240.834 227.304 C 287.91 227.304 329.035 236.719 351.158 250.703 C 362.174 243.746 368.486 235.65 368.486 227.013 C 368.486 201.004 311.332 179.911 240.834 179.911 C 170.32 179.911 113.166 201.004 113.166 227.013 C 113.166 235.65 119.478 243.747 130.494 250.703 Z" transform="matrix(0.939692, -0.342021, 0.342021, 0.939692, -59.115864, 95.352239)"></path>
  <path style="fill:#EC87C0;" d="M 239.445 76.579 C 98.074 76.579 -16.547 139.765 -16.547 204.576 L -16.547 250.028 L 76.231 327.151 C 85.965 335.229 101.684 340.417 115.214 340.417 C 117.605 340.417 119.948 340.245 122.151 339.917 L 220.07 324.995 C 230.632 323.386 248.477 323.386 259.039 324.995 L 356.754 339.9 C 371.473 342.148 391.223 336.666 402.675 327.15 L 495.438 250.027 L 495.438 204.575 C 495.438 139.765 380.833 76.579 239.445 76.579 Z M 239.539 246.575 C 169.041 246.575 111.887 222.841 111.887 193.576 C 111.887 164.295 169.041 140.577 239.539 140.577 C 310.038 140.577 367.192 164.295 367.192 193.576 C 367.192 222.841 310.038 246.575 239.539 246.575 Z" transform="matrix(0.939693, -0.34202, 0.34202, 0.939693, -56.87015, 94.469063)"></path>
  <path style="fill: rgb(232, 61, 113);" d="M 134.985 310.972 C 134.487 310.282 133.924 309.711 133.34 309.26 L 133.34 309.26 C 128.842 305.776 128.193 301.798 128.094 299.094 C 127.965 295.237 129.047 291.903 129.068 291.873 L 129.026 291.978 L 129.026 291.978 C 130.378 288.149 129.913 283.403 127.621 280.221 C 124.732 276.211 120.06 276.211 117.172 280.221 C 116.587 281.046 116.123 281.962 115.776 282.953 L 115.766 282.953 C 115.506 283.674 113.257 290.311 113.322 298.811 C 113.42 310.792 117.983 320.868 126.172 327.175 L 126.172 327.175 C 128.983 329.337 132.596 328.781 134.986 325.463 C 137.863 321.468 137.863 314.982 134.985 310.972 Z" transform="matrix(0.406736, -0.913546, 0.913546, 0.406736, -202.360444, 294.068053)"></path>
  <path style="fill:#ED5564;" d="M 274.133 89.155 C 269.962 93.311 269.962 100.061 274.133 104.232 C 278.289 108.404 285.055 108.404 289.211 104.232 C 293.382 100.061 293.382 93.311 289.211 89.155 C 285.055 84.983 278.289 84.983 274.133 89.155 Z" transform="matrix(0.069756, -0.997564, 0.997564, 0.069756, 165.565723, 370.934417)"></path>
  <path style="fill:#5D9CEC;" d="M 77.736 171.864 C 73.58 176.035 73.58 182.785 77.736 186.957 C 81.908 191.113 88.658 191.113 92.83 186.957 C 96.986 182.785 96.986 176.035 92.83 171.864 C 88.658 167.708 81.908 167.708 77.736 171.864 Z" transform="matrix(0.069756, -0.997564, 0.997564, 0.069756, -99.63947, 251.9708)"></path>
  <path style="fill: rgb(229, 22, 22);" d="M 394.949 175.869 C 390.777 180.041 390.777 186.791 394.949 190.963 C 399.121 195.119 405.871 195.119 410.043 190.963 C 414.199 186.791 414.199 180.041 410.043 175.869 C 405.871 171.714 399.121 171.714 394.949 175.869 Z" transform="matrix(0.069756, -0.997564, 0.997564, 0.069756, 191.444326, 572.131556)"></path>
  <path style="fill: rgb(237, 116, 23);" d="M 220.534 284.436 C 216.363 288.608 216.363 295.356 220.534 299.512 C 224.69 303.684 231.456 303.684 235.612 299.512 C 239.783 295.356 239.783 288.608 235.612 284.436 C 231.456 280.264 224.69 280.264 220.534 284.436 Z" transform="matrix(0.069756, -0.997564, 0.997564, 0.069756, -79.099229, 499.1245)"></path>
  <path style="fill: rgb(65, 174, 147);" d="M 176.637 133.679 C 174.903 131.945 172.715 130.945 170.465 130.663 L 170.465 130.647 C 149.637 127.944 147.746 119.038 147.684 118.647 C 147.746 118.991 147.731 119.194 147.731 119.194 L 147.731 119.194 C 147.559 116.694 146.543 114.256 144.637 112.35 C 140.465 108.178 133.716 108.178 129.544 112.35 C 127.294 114.616 126.263 117.631 126.466 120.6 L 126.45 120.6 C 126.45 120.678 126.466 120.772 126.481 120.897 C 126.481 120.913 126.481 120.928 126.481 120.944 C 126.669 122.85 127.7 129.319 133.419 136.006 C 140.684 144.474 152.231 149.802 167.715 151.802 L 167.731 151.786 C 170.887 152.192 174.2 151.192 176.637 148.77 C 180.793 144.6 180.793 137.85 176.637 133.679 Z" transform="matrix(0.406736, -0.913546, 0.913546, 0.406736, -28.433824, 217.310662)"></path>
  <path style="fill:#FFCE54;" d="M 407.678 93.91 L 407.694 93.91 C 407.585 93.879 407.444 93.848 407.288 93.816 C 407.272 93.816 407.257 93.816 407.226 93.816 C 405.288 93.425 399.21 92.597 391.335 95.394 C 380.835 99.128 371.663 107.456 364.069 120.144 L 364.069 120.144 C 361.631 124.253 362.147 129.626 365.678 133.158 C 369.85 137.33 376.6 137.33 380.772 133.158 C 381.397 132.517 381.928 131.814 382.366 131.08 L 382.382 131.096 C 392.694 113.832 402.413 114.66 403.148 114.754 C 406.523 115.41 410.147 114.442 412.772 111.832 C 416.928 107.66 416.928 100.91 412.772 96.738 C 411.318 95.285 409.536 94.363 407.678 93.91 Z M 402.756 114.659 L 402.756 114.659 C 402.881 114.675 403.006 114.721 403.131 114.737 C 402.897 114.706 402.756 114.659 402.756 114.659 Z" transform="matrix(0.069756, -0.997564, 0.997564, 0.069756, 247.515931, 495.107237)"></path>
  <path style="fill: rgb(222, 0, 162);" d="M 345.752 234.873 L 345.752 234.873 C 322.502 234.873 314.565 226.779 313.612 222.498 C 313.69 222.795 313.69 222.967 313.69 222.967 L 313.674 222.967 C 313.408 220.67 312.408 218.436 310.643 216.655 C 306.471 212.499 299.722 212.499 295.55 216.655 C 293.159 219.061 292.144 222.311 292.503 225.436 L 292.503 225.436 C 292.675 226.967 293.972 235.014 302.034 242.624 C 311.565 251.638 326.283 256.2 345.751 256.2 L 345.751 256.2 C 348.485 256.2 351.22 255.169 353.298 253.075 C 357.469 248.919 357.469 242.171 353.298 237.999 C 351.221 235.92 348.486 234.873 345.752 234.873 Z" transform="matrix(0.406736, -0.913546, 0.913546, 0.406736, -22.091239, 435.720513)"></path>
  <path style="fill:#4FC2E9;" d="M 66.268 232.41 C 62.096 228.254 55.347 228.254 51.175 232.41 C 49.55 234.035 48.566 236.066 48.222 238.175 L 48.206 238.175 C 45.409 254.691 24.597 261.441 23.707 261.722 C 22.051 262.206 20.488 263.113 19.176 264.41 C 15.02 268.581 15.02 275.331 19.176 279.503 C 22.051 282.378 26.16 283.253 29.801 282.175 C 31.879 281.55 64.003 271.472 69.191 242.019 C 69.191 242.003 69.191 241.972 69.207 241.957 C 69.207 241.879 69.223 241.816 69.238 241.738 L 69.238 241.738 C 69.784 238.456 68.799 234.957 66.268 232.41 Z" transform="matrix(0.069756, -0.997564, 0.997564, 0.069756, -215.591746, 280.719538)"></path>
</svg>