<svg version="1.1" id="Layer_1" x="0px" y="0px" viewBox="0 0 511.984 511.984" style="enable-background:new 0 0 511.984 511.984;" xmlns="http://www.w3.org/2000/svg">
  <defs></defs>
  <path style="fill: #FFD2A8;" d="M255.992,74.67C114.621,74.67,0,137.856,0,202.666v106.653c0,64.811,114.622,127.996,255.992,127.996
	c141.387,0,255.992-63.186,255.992-127.996V202.666C511.984,137.856,397.379,74.67,255.992,74.67z M256.086,298.663
	c-70.498,0-128.09,6.922-128.09-22.344c0-29.264,57.154-52.998,127.668-52.998c70.498,0,127.652,23.734,127.652,52.998
	C383.316,305.585,326.584,298.663,256.086,298.663z"></path>
  <path style="fill:#D770AD;" d="M179.057,233.931c21.343-6.656,47.858-10.609,76.607-10.609c28.921,0,55.607,4,77.014,10.734
	c31.014-9.672,51.061-25.062,51.061-42.39c0-29.28-57.154-52.998-127.652-52.998s-127.652,23.718-127.652,52.998
	C128.433,208.916,148.308,224.243,179.057,233.931z"></path>
  <path style="fill: #FFD2A8;" d="M145.324,249.649c22.125-15.734,63.248-26.328,110.34-26.328c47.076,0,88.201,10.594,110.324,26.328
	c11.016-7.828,17.328-16.937,17.328-26.656c0-29.265-57.154-52.998-127.652-52.998c-70.514,0-127.668,23.733-127.668,52.998
	C127.996,232.712,134.308,241.822,145.324,249.649z"></path>
  <path style="fill:#EC87C0;" d="M255.992,74.67C114.621,74.67,0,137.856,0,202.666v45.452l92.778,77.123
	c9.734,8.078,25.453,13.266,38.983,13.266c2.391,0,4.734-0.172,6.937-0.5l97.919-14.922c10.562-1.609,28.406-1.609,38.968,0
	L373.3,337.99c14.719,2.248,34.469-3.234,45.921-12.75l92.763-77.123v-45.452C511.984,137.856,397.379,74.67,255.992,74.67z
	 M256.086,244.665c-70.498,0-127.652-23.734-127.652-52.999c0-29.28,57.154-52.998,127.652-52.998s127.652,23.718,127.652,52.998
	C383.738,220.931,326.584,244.665,256.086,244.665z"></path>
  <path style="fill:#A0D468;" d="M92.856,195.119c-0.719-0.719-1.531-1.312-2.375-1.781l0,0c-6.5-3.625-7.437-7.765-7.578-10.578
	c-0.188-4.015,1.375-7.484,1.406-7.515l-0.062,0.109l0,0c1.953-3.984,1.281-8.922-2.031-12.234c-4.172-4.172-10.921-4.172-15.093,0
	c-0.844,0.859-1.516,1.812-2.016,2.844h-0.015c-0.375,0.75-3.625,7.656-3.531,16.5c0.141,12.468,6.734,22.953,18.562,29.515l0,0
	c4.062,2.25,9.281,1.671,12.734-1.781C97.013,206.041,97.013,199.291,92.856,195.119z"></path>
  <path style="fill:#ED5564;" d="M280.46,109.794c-4.171,4.156-4.171,10.906,0,15.077c4.156,4.172,10.922,4.172,15.078,0
	c4.171-4.171,4.171-10.921,0-15.077C291.382,105.622,284.616,105.622,280.46,109.794z"></path>
  <path style="fill:#5D9CEC;" d="M387.113,120.45c-4.156,4.171-4.156,10.921,0,15.093c4.172,4.156,10.922,4.156,15.094,0
	c4.156-4.172,4.156-10.922,0-15.093C398.035,116.294,391.285,116.294,387.113,120.45z"></path>
  <path style="fill:#A0D468;" d="M301.787,280.443c-4.172,4.172-4.172,10.922,0,15.094c4.172,4.156,10.922,4.156,15.094,0
	c4.156-4.172,4.156-10.922,0-15.094C312.709,276.288,305.959,276.288,301.787,280.443z"></path>
  <path style="fill:#FFCE54;" d="M216.462,269.789c-4.171,4.172-4.171,10.92,0,15.076c4.156,4.172,10.922,4.172,15.078,0
	c4.171-4.156,4.171-10.904,0-15.076C227.384,265.617,220.618,265.617,216.462,269.789z"></path>
  <path style="fill:#48CFAD;" d="M466.205,184.448c-1.734-1.734-3.922-2.734-6.172-3.016v-0.016
	c-20.828-2.703-22.719-11.609-22.781-12c0.062,0.344,0.047,0.547,0.047,0.547l0,0c-0.172-2.5-1.188-4.938-3.094-6.844
	c-4.172-4.172-10.921-4.172-15.093,0c-2.25,2.266-3.281,5.281-3.078,8.25h-0.016c0,0.078,0.016,0.172,0.031,0.297
	c0,0.016,0,0.031,0,0.047c0.188,1.906,1.219,8.375,6.938,15.062c7.265,8.468,18.812,13.796,34.296,15.796l0.016-0.016
	c3.156,0.406,6.469-0.594,8.906-3.016C470.361,195.369,470.361,188.619,466.205,184.448z"></path>
  <path style="fill:#FFCE54;" d="M407.785,245.618h0.016c-0.109-0.031-0.25-0.062-0.406-0.094c-0.016,0-0.031,0-0.062,0
	c-1.938-0.391-8.016-1.219-15.891,1.578c-10.5,3.734-19.672,12.062-27.266,24.75l0,0c-2.438,4.109-1.922,9.482,1.609,13.014
	c4.172,4.172,10.922,4.172,15.094,0c0.625-0.641,1.156-1.344,1.594-2.078l0.016,0.016c10.312-17.264,20.031-16.436,20.766-16.342
	c3.375,0.656,6.999-0.312,9.624-2.922c4.156-4.172,4.156-10.922,0-15.094C411.425,246.993,409.643,246.071,407.785,245.618z
	 M402.863,266.367L402.863,266.367c0.125,0.016,0.25,0.062,0.375,0.078C403.004,266.414,402.863,266.367,402.863,266.367z"></path>
  <path style="fill:#ED5564;" d="M159.995,266.664L159.995,266.664c-23.25,0-31.187-8.094-32.14-12.375
	c0.078,0.297,0.078,0.469,0.078,0.469h-0.016c-0.266-2.297-1.266-4.531-3.031-6.312c-4.172-4.156-10.921-4.156-15.093,0
	c-2.391,2.406-3.406,5.656-3.047,8.781l0,0c0.172,1.531,1.469,9.578,9.531,17.188c9.531,9.014,24.249,13.576,43.717,13.576l0,0
	c2.734,0,5.469-1.031,7.547-3.125c4.171-4.156,4.171-10.904,0-15.076C165.464,267.711,162.729,266.664,159.995,266.664z"></path>
  <path style="fill:#4FC2E9;" d="M210.212,88.451c-4.172-4.156-10.921-4.156-15.093,0c-1.625,1.625-2.609,3.656-2.953,5.765h-0.016
	c-2.797,16.516-23.609,23.265-24.499,23.546c-1.656,0.484-3.219,1.391-4.531,2.688c-4.156,4.171-4.156,10.921,0,15.093
	c2.875,2.875,6.984,3.75,10.625,2.672c2.078-0.625,34.202-10.703,39.39-40.155c0-0.016,0-0.047,0.016-0.062
	c0-0.078,0.016-0.141,0.031-0.219l0,0C213.728,94.497,212.743,90.998,210.212,88.451z"></path>
</svg>